Coordinates
version=1
nRows=16
nColumns=42
inDegrees=yes

Units are S.I. units (second, meters, Newtons, ...)
If the header above contains a line with 'inDegrees', this indicates whether rotational values are in degrees (yes) or radians (no).

endheader
time	pelvis_tilt	pelvis_list	pelvis_rotation	pelvis_tx	pelvis_ty	pelvis_tz	hip_flexion_r	hip_adduction_r	hip_rotation_r	knee_angle_r	knee_adduction_r	knee_angle_r_beta	ankle_angle_r	subtalar_angle_r	mtp_angle_r	hip_flexion_l	hip_adduction_l	hip_rotation_l	knee_angle_l	knee_adduction_l	knee_angle_l_beta	ankle_angle_l	subtalar_angle_l	mtp_angle_l	lumbar_extension	lumbar_bending	lumbar_rotation	arm_flex_r	arm_add_r	arm_rot_r	elbow_flex_r	pro_sup_r	wrist_flex_r	wrist_dev_r	arm_flex_l	arm_add_l	arm_rot_l	elbow_flex_l	pro_sup_l	wrist_flex_l	wrist_dev_l
      3.16000000	     -2.85987894	     -1.58562662	     -4.39304825	      1.38268137	      0.85806277	     -0.16614915	    -10.15641595	     -9.11047110	     -2.69351200	     33.56291231	     13.89655557	      0.58578333	      1.04142298	      5.01732484	     -7.50021389	     27.37903973	    -12.25138152	     -0.69317384	     20.77101535	     19.87933490	      0.36252261	     -4.39161086	    -10.92376868	     -7.50021389	    -13.21975530	      0.98333354	      2.77070074	     -8.55456754	    -13.59192450	     -3.09914055	     19.26064813	     90.00000001	      0.00000000	      0.00000000	    -14.40600870	     -6.80431558	      7.35031608	     25.06979764	     90.00000001	      0.00000000	      0.00000000
      3.17000000	     -2.85412001	     -1.53434790	     -4.20055482	      1.39422834	      0.85962064	     -0.16795576	     -8.79906599	     -9.58832954	     -3.67257488	     37.03813737	     13.38935825	      0.64643745	     -1.38415323	      5.51854863	     -7.50019727	     26.96582146	    -12.08075270	     -1.03432932	     21.69069578	     19.93746082	      0.37857406	     -3.15945853	     -9.44504245	     -7.50019727	    -13.19002063	      0.88850438	      2.53714498	     -8.47154590	    -13.48360846	     -3.36793172	     19.13368680	     90.00000001	      0.00000000	      0.00000000	    -14.19492353	     -6.85938257	      7.32381756	     24.72317382	     90.00000001	      0.00000000	      0.00000000
      3.18000000	     -2.85874860	     -1.47440382	     -4.06340204	      1.40556268	      0.86137184	     -0.16972761	     -7.38448289	    -10.06389904	     -3.75152916	     40.20423551	     13.27347468	      0.70169628	     -3.72902529	      4.58374876	     -7.50019343	     26.28641439	    -11.84393735	     -0.98109632	     21.91490227	     20.06591078	      0.38248720	     -2.25497248	     -9.11134884	     -7.50019343	    -13.16310670	      0.77975911	      2.41842063	     -8.44571473	    -13.48128334	     -3.39632349	     19.12256350	     90.00000001	      0.00000000	      0.00000000	    -13.98998305	     -7.06561234	      7.28157203	     24.66418778	     90.00000001	      0.00000000	      0.00000000
      3.19000000	     -2.86748180	     -1.44519049	     -3.98557266	      1.41676372	      0.86315547	     -0.17135036	     -5.86920228	    -10.44917741	     -3.55084241	     43.24430959	     13.16269759	      0.75475559	     -5.46240277	      3.71316575	     -7.50019085	     25.51250402	    -11.70567169	     -1.11046187	     22.01062875	     20.24368908	      0.38415794	     -1.38213276	     -8.72019004	     -7.50019085	    -13.13752929	      0.71463562	      2.32154829	     -8.40458562	    -13.43642903	     -3.40932049	     19.10579793	     90.00000001	      0.00000000	      0.00000000	    -13.80033910	     -7.23795390	      7.23830865	     24.56249661	     90.00000001	      0.00000000	      0.00000000
      3.20000000	     -2.91956140	     -1.49104697	     -3.77973772	      1.42786268	      0.86486720	     -0.17297363	     -4.28684910	    -10.66539060	     -3.48363459	     46.13375531	     12.95530487	      0.80518593	     -7.20053989	      1.94483411	     -7.50017524	     25.00568290	    -11.53857864	     -2.05370355	     22.73084731	     19.87836631	      0.39672813	      0.16757153	     -6.14355362	     -7.50017524	    -13.05105417	      0.74843772	      2.09948101	     -8.30469922	    -13.38024357	     -3.51910859	     19.03772552	     90.00000001	      0.00000000	      0.00000000	    -13.55071990	     -7.35591593	      7.04454281	     24.17186847	     90.00000001	      0.00000000	      0.00000000
      3.21000000	     -2.99087841	     -1.43983107	     -3.67267375	      1.43874956	      0.86659986	     -0.17451238	     -2.58998594	    -10.94976488	     -3.18023693	     48.85592048	     12.77104449	      0.85269667	     -7.75837059	      1.13000855	     -7.50017106	     24.22962304	    -11.26259672	     -2.21791660	     22.62074886	     19.81832368	      0.39480655	      1.00563371	     -5.59219765	     -7.50017106	    -12.95293503	      0.67457347	      1.99162119	     -8.30088390	    -13.36517765	     -3.51321156	     19.13742683	     90.00000001	      0.00000000	      0.00000000	    -13.37964037	     -7.59471817	      6.98078803	     24.19554573	     90.00000001	      0.00000000	      0.00000000
      3.22000000	     -3.04728641	     -1.50395372	     -3.51221383	      1.44958271	      0.86836971	     -0.17593422	     -0.94277635	    -11.01107669	     -2.67960624	     51.22883293	     12.72325403	      0.89411181	     -8.14753569	     -0.60346771	     -7.50015370	     23.55013727	    -11.12409229	     -2.88330046	     22.87726279	     19.56141746	      0.39928356	      2.17638579	     -3.78869727	     -7.50015370	    -12.85886779	      0.73953747	      1.79548421	     -8.15224256	    -13.31886740	     -3.58039130	     18.97212739	     90.00000001	      0.00000000	      0.00000000	    -13.12986713	     -7.75028709	      6.74603123	     23.82614900	     90.00000001	      0.00000000	      0.00000000
      3.23000000	     -2.91739813	     -1.66518266	     -3.34673038	      1.46030212	      0.87033392	     -0.17729484	      0.44757654	    -10.90786659	     -2.19799773	     53.24372968	     12.64624020	      0.92927839	     -7.68880938	     -0.92570809	     -7.50015168	     22.56543131	    -11.12153238	     -2.96257251	     22.77729863	     19.62903554	      0.39753886	      2.59674034	     -3.49424369	     -7.50015168	    -13.00917871	      0.92390413	      1.59001759	     -8.01675058	    -13.36815225	     -3.58100704	     19.19252194	     90.00000001	      0.00000000	      0.00000000	    -12.95832621	     -7.95734420	      6.70571413	     23.94513757	     90.00000001	      0.00000000	      0.00000000
      3.24000000	     -3.09301583	     -1.65930294	     -3.24029548	      1.47096023	      0.87191136	     -0.17853435	      2.28542823	    -10.96518103	     -2.04914888	     55.21057688	     12.33320497	      0.96360635	     -6.66539065	     -1.69870248	     -7.50014918	     21.79322249	    -10.89605689	     -3.02626814	     22.38733552	     19.55345949	      0.39073272	      3.33803316	     -3.08602717	     -7.50014918	    -12.72627769	      0.92198075	      1.52340685	     -8.08056350	    -13.28785057	     -3.57153736	     19.25873040	     90.00000001	      0.00000000	      0.00000000	    -12.84639590	     -8.28432727	      6.61632041	     23.90461686	     90.00000001	      0.00000000	      0.00000000
      3.25000000	     -3.23129375	     -1.71516777	     -2.99612694	      1.48142973	      0.87351880	     -0.17985134	      4.01250031	    -10.87080712	     -1.98160083	     56.81670335	     12.01603138	      0.99163854	     -5.30780935	     -2.48800832	     -7.50014590	     21.06186239	    -10.66143146	     -2.90445232	     22.02952707	     19.42138825	      0.38448778	      4.09077754	     -2.57182872	     -7.50014590	    -12.51359661	      0.99016315	      1.30138540	     -8.04250056	    -13.23501331	     -3.57694722	     19.22968929	     90.00000001	      0.00000000	      0.00000000	    -12.60676743	     -8.53843110	      6.50222143	     23.73131080	     90.00000001	      0.00000000	      0.00000000
      3.26000000	     -3.27197785	     -1.85814858	     -2.76438628	      1.49188791	      0.87519142	     -0.18106447	      5.56473141	    -10.66022456	     -1.89368166	     58.03775356	     11.77579528	      1.01294989	     -3.77666361	     -2.98484049	     -7.50014214	     20.21057012	    -10.58200037	     -2.79609385	     21.68623717	     19.37696565	      0.37849624	      4.74625854	     -2.06203529	     -7.50014214	    -12.40786304	      1.17781829	      1.06245042	     -7.92393591	    -13.19967263	     -3.60885805	     19.17035300	     90.00000001	      0.00000000	      0.00000000	    -12.37001471	     -8.77803713	      6.34468669	     23.50657320	     90.00000001	      0.00000000	      0.00000000
      3.27000000	     -3.30159183	     -2.03032723	     -2.53852522	      1.50229860	      0.87683486	     -0.18218807	      7.06736500	    -10.37482910	     -1.85927579	     58.93802111	     11.52407948	      1.02866252	     -2.18173730	     -3.29789696	     -7.50013940	     19.31584835	    -10.57695621	     -2.77969529	     21.29927167	     19.35549917	      0.37174242	      5.28517209	     -1.65752821	     -7.50013940	    -12.29680207	      1.39091855	      0.87836076	     -7.87146733	    -13.16103800	     -3.63790857	     19.18536425	     90.00000001	      0.00000000	      0.00000000	    -12.16526576	     -9.05124550	      6.20822878	     23.42126977	     90.00000001	      0.00000000	      0.00000000
      3.28000000	     -3.33341281	     -2.20812623	     -2.27156702	      1.51260529	      0.87839831	     -0.18327630	      8.51630703	    -10.07608674	     -1.93137844	     59.52150672	     11.30636864	      1.03884627	     -0.45681713	     -3.47848887	     -7.50013678	     18.42464686	    -10.57190463	     -2.64969997	     20.85648220	     19.34573882	      0.36401428	      5.84615419	     -1.22874064	     -7.50013678	    -12.18176266	      1.61702730	      0.64074821	     -7.80536947	    -13.11873672	     -3.67613615	     19.18247122	     90.00000001	      0.00000000	      0.00000000	    -11.95853098	     -9.33243133	      6.06211615	     23.30839375	     90.00000001	      0.00000000	      0.00000000
      3.29000000	     -3.34721523	     -2.41404574	     -1.97565165	      1.52285005	      0.87988014	     -0.18434894	      9.89999918	     -9.74025487	     -2.03984788	     59.81517154	     11.12519765	      1.04397169	      1.24045675	     -3.52089186	     -7.50013424	     17.49947474	    -10.60756721	     -2.50521576	     20.36135778	     19.34116597	      0.35537273	      6.39192024	     -0.79468073	     -7.50013424	    -12.08516027	      1.88063229	      0.36893803	     -7.71905536	    -13.07769716	     -3.72494474	     19.16619965	     90.00000001	      0.00000000	      0.00000000	    -11.73424850	     -9.61858875	      5.90765163	     23.18787108	     90.00000001	      0.00000000	      0.00000000
      3.30000000	     -3.34261364	     -2.61021752	     -1.64872245	      1.53304927	      0.88126649	     -0.18539910	     11.19177576	     -9.42024425	     -2.19410468	     59.78890401	     11.01299591	      1.04351323	      2.88345778	     -3.45258496	     -7.50013160	     16.54855745	    -10.65310295	     -2.29895936	     19.83260510	     19.37479507	      0.34614426	      6.93260547	     -0.32746444	     -7.50013160	    -11.99680290	      2.13865923	      0.09119079	     -7.65219791	    -13.01772315	     -3.78954714	     19.11359812	     90.00000001	      0.00000000	      0.00000000	    -11.48059982	     -9.91207102	      5.73533161	     23.05738958	     90.00000001	      0.00000000	      0.00000000
      3.31000000	     -3.26290479	     -2.80756621	     -1.27004217	      1.54322967	      0.88263136	     -0.18643708	     12.31642494	     -9.12263246	     -2.38044730	     59.46203870	     11.00551249	      1.03780836	      4.41885191	     -2.94428085	     -7.50012624	     15.46966467	    -10.70109432	     -1.97305003	     19.15536869	     19.44262815	      0.33432425	      7.53802005	      0.16694953	     -7.50012624	    -11.98076912	      2.40742826	     -0.25595381	     -7.45911597	    -12.91681812	     -4.00508238	     18.83541029	     90.00000001	      0.00000000	      0.00000000	    -11.14872671	    -10.15350888	      5.37809010	     22.69315651	     90.00000001	      0.00000000	      0.00000000
